<?xml version="1.0" standalone="no"?>
<!DOCTYPE svg PUBLIC "-//W3C//DTD SVG 20010904//EN"
 "http://www.w3.org/TR/2001/REC-SVG-20010904/DTD/svg10.dtd">
<svg version="1.0" xmlns="http://www.w3.org/2000/svg"
 width="30px" height="30px" viewBox="0 0 600.000000 600.000000"
 preserveAspectRatio="xMidYMid meet">

<g transform="translate(0.000000,600.000000) scale(0.100000,-0.100000)"
fill="#fff" stroke="none">
<path d="M2085 5489 c-209 -8 -408 -29 -510 -55 -275 -69 -476 -179 -653 -356
-223 -223 -347 -498 -392 -868 -20 -167 -30 -563 -30 -1205 0 -1132 20 -1361
144 -1667 61 -151 134 -262 249 -384 150 -158 269 -239 457 -315 295 -118 537
-139 1635 -139 1047 1 1296 17 1564 102 225 72 365 159 536 332 138 141 203
238 271 404 124 306 144 535 144 1667 0 642 -10 1038 -30 1205 -45 371 -169
647 -392 868 -180 179 -356 278 -618 346 -136 36 -295 54 -572 66 -275 11
-1499 11 -1803 -1z m1775 -449 c135 -5 281 -14 325 -20 487 -66 770 -349 835
-836 20 -151 30 -538 30 -1184 0 -646 -10 -1033 -30 -1184 -47 -352 -214 -606
-484 -736 -240 -116 -520 -136 -1746 -127 -774 6 -928 13 -1102 52 -369 82
-601 314 -683 683 -40 180 -46 318 -52 1102 -5 732 4 1208 27 1387 63 495 347
779 843 844 49 6 168 14 265 19 266 11 1493 11 1772 0z"/>
<path d="M4199 4597 c-181 -93 -218 -329 -75 -473 144 -143 380 -106 473 75
28 54 33 73 33 135 0 172 -125 296 -297 296 -61 0 -80 -5 -134 -33z"/>
<path d="M2785 4266 c-232 -45 -418 -129 -589 -267 -456 -366 -605 -1005 -360
-1539 124 -269 355 -500 624 -624 295 -135 640 -154 947 -51 197 66 347 159
498 310 176 175 284 367 347 620 20 78 23 116 23 285 0 179 -2 204 -27 301
-119 470 -475 828 -942 945 -85 22 -129 27 -276 30 -120 2 -197 -1 -245 -10z
m383 -452 c576 -118 849 -788 521 -1278 -325 -487 -1053 -487 -1378 0 -292
436 -113 1031 372 1232 145 61 330 78 485 46z"/>
</g>
</svg>
